<?xml version="1.0" encoding="iso-8859-1"?>
<!-- Generator: Adobe Illustrator 18.1.1, SVG Export Plug-In . SVG Version: 6.00 Build 0)  -->
<svg version="1.1" id="Capa_1" xmlns="http://www.w3.org/2000/svg" xmlns:xlink="http://www.w3.org/1999/xlink" x="0px" y="0px"
	 viewBox="0 0 150.735 150.735" style="enable-background:new 0 0 150.735 150.735;" xml:space="preserve">
<g>
	<g>
		<g>
			<path style="fill:#010002;" d="M118.991,94.641c-1.432,3.658-4.779,6.85-9.088,8.389c-4.183,1.504-8.831,1.187-12.25-0.71
				c-2.214,3.204-6.128,5.525-10.603,6.038c-0.638,0.072-1.271,0.107-1.897,0.107c-3.825,0-7.327-1.331-9.768-3.568
				c-2.852,2.613-7.101,3.962-11.677,3.461c-4.481-0.513-8.395-2.834-10.609-6.038c-3.401,1.909-8.049,2.214-12.244,0.71
				c-4.314-1.539-7.661-4.72-9.094-8.389c-2.93,0.841-6.307,0.537-9.428-0.746v39.149c0,9.768,23.748,17.692,53.063,17.692
				c29.309,0,53.057-7.924,53.057-17.692V93.907C125.304,95.178,121.939,95.482,118.991,94.641z"/>
		</g>
		<path style="fill:#010002;" d="M95.076,60.104v11.641c0,7.781-10.174,10.555-19.703,10.555c-9.535,0-19.709-2.775-19.709-10.555
			V60.104c-21.141,2.655-36.189,9.44-36.189,17.423v11.438c0.465,0.382,0.943,0.782,1.474,1.122
			c4.547,2.971,9.756,2.888,12.799,0.537c-0.024,3.855,3.073,8.043,8.043,9.816c4.958,1.784,9.941,0.489,12.328-2.506
			c0.835,3.741,4.72,7.089,9.905,7.679c5.173,0.597,9.708-1.796,11.349-5.257c1.641,3.461,6.176,5.848,11.349,5.257
			c5.185-0.597,9.076-3.938,9.905-7.679c2.387,2.983,7.363,4.29,12.328,2.506c4.964-1.772,8.067-5.955,8.031-9.816
			c3.055,2.357,8.264,2.434,12.805-0.537c0.525-0.34,1.014-0.734,1.468-1.122V77.528C131.259,69.544,116.205,62.771,95.076,60.104z"
			/>
		<g>
			<path style="fill:#010002;" d="M83.071,24.572c-1.617,2.727-4.278,3.974-7.13,5.03c-0.841,0.316-1.677,0.471-2.518,0.471
				c-2.619,0-5.245-1.689-6.51-5.305c-3.192,0.847-5.287,2.124-5.287,3.598v43.385c0,2.53,6.152,4.589,13.742,4.589
				c7.584,0,13.736-2.059,13.736-4.589V28.367C89.109,26.785,86.705,25.395,83.071,24.572z"/>
			<path style="fill:#010002;" d="M74.801,26.529c4.063-1.516,6.534-2.858,6.534-8.765c0-4.427-3.777-15.371-5.836-17.763
				c-2.041,2.876-6.092,15.15-6.092,19.774C69.407,24.816,71.71,27.674,74.801,26.529z"/>
		</g>
	</g>
</g>
<g>
</g>
<g>
</g>
<g>
</g>
<g>
</g>
<g>
</g>
<g>
</g>
<g>
</g>
<g>
</g>
<g>
</g>
<g>
</g>
<g>
</g>
<g>
</g>
<g>
</g>
<g>
</g>
<g>
</g>
</svg>
