<?xml version="1.0" encoding="iso-8859-1"?>
<!-- Generator: Adobe Illustrator 16.0.0, SVG Export Plug-In . SVG Version: 6.00 Build 0)  -->
<!DOCTYPE svg PUBLIC "-//W3C//DTD SVG 1.1//EN" "http://www.w3.org/Graphics/SVG/1.1/DTD/svg11.dtd">
<svg version="1.1" id="Capa_1" xmlns="http://www.w3.org/2000/svg" xmlns:xlink="http://www.w3.org/1999/xlink" x="0px" y="0px"
	 width="58.395px" height="58.395px" viewBox="0 0 58.395 58.395" style="enable-background:new 0 0 58.395 58.395;"
	 xml:space="preserve">
<g>
	<g>
		<rect y="5.354" width="58.395" height="3.31"/>
		<g>
			<path d="M31.458,33.655h-4.384c-1.616,0-2.729,0.685-2.729,2.478v2.949c0,1.583,0.827,2.372,2.981,2.372h4.059
				c1.543,0,2.661-0.757,2.661-2.372v-2.949C34.047,34.488,33.002,33.655,31.458,33.655z"/>
			<path d="M31.389,22.549h-4.06c-1.869,0-2.981,0.33-2.981,2.984v1.975c0,2.049,1.509,2.519,2.728,2.519h4.385
				c2.228,0,2.588-1.297,2.588-2.519v-1.975C34.047,23.202,33.076,22.549,31.389,22.549z"/>
			<path d="M0,10.997v42.044h58.395V10.997H0z M38.212,27.079c0.037,0.862-0.178,3.705-2.693,4.167
				c2.119,0.397,2.728,3.308,2.693,4.85v3.239c0,5.103-3.412,5.927-6.106,5.927h-5.354c-6.396,0-6.575-4.097-6.575-5.858v-2.949
				c0-2.372,1.293-3.556,2.947-3.987c-2.443-0.972-2.947-3.124-2.947-5.135v-2.338c0-4.887,2.873-6.214,6.575-6.214h5.394
				c3.984,0,6.071,1.761,6.071,6.214v2.085H38.212z"/>
		</g>
	</g>
</g>
<g>
</g>
<g>
</g>
<g>
</g>
<g>
</g>
<g>
</g>
<g>
</g>
<g>
</g>
<g>
</g>
<g>
</g>
<g>
</g>
<g>
</g>
<g>
</g>
<g>
</g>
<g>
</g>
<g>
</g>
</svg>
