<?xml version="1.0" encoding="iso-8859-1"?>
<!-- Generator: Adobe Illustrator 16.0.0, SVG Export Plug-In . SVG Version: 6.00 Build 0)  -->
<!DOCTYPE svg PUBLIC "-//W3C//DTD SVG 1.1//EN" "http://www.w3.org/Graphics/SVG/1.1/DTD/svg11.dtd">
<svg version="1.1" id="Capa_1" xmlns="http://www.w3.org/2000/svg" xmlns:xlink="http://www.w3.org/1999/xlink" x="0px" y="0px"
	 width="67.398px" height="67.398px" viewBox="0 0 67.398 67.398" style="enable-background:new 0 0 67.398 67.398;"
	 xml:space="preserve">
<g>
	<g>
		<path d="M25.941,7.238c-1.355,1.701-2.199,3.831-2.199,6.176c0,5.499,4.458,9.962,9.958,9.962c5.501,0,9.958-4.459,9.958-9.962
			c0-2.345-0.844-4.476-2.199-6.176c10.489,3.08,18.399,12.243,19.636,23.398h6.154C65.693,13.487,51.25,0,33.705,0
			C16.161,0,1.712,13.487,0.156,30.636h6.154C7.547,19.483,15.451,10.32,25.941,7.238z"/>
		<path d="M41.909,60.006c1.099-1.608,1.747-3.538,1.747-5.625c0-5.5-4.457-9.962-9.96-9.962c-5.503,0-9.96,4.458-9.96,9.962
			c0,2.09,0.652,4.023,1.748,5.625C15.222,56.787,7.525,47.752,6.299,36.767H0.149c1.556,17.148,15.995,30.632,33.542,30.632
			c17.545,0,31.986-13.483,33.542-30.632h-6.15C59.867,47.752,52.164,56.787,41.909,60.006z"/>
	</g>
</g>
<g>
</g>
<g>
</g>
<g>
</g>
<g>
</g>
<g>
</g>
<g>
</g>
<g>
</g>
<g>
</g>
<g>
</g>
<g>
</g>
<g>
</g>
<g>
</g>
<g>
</g>
<g>
</g>
<g>
</g>
</svg>
