<?xml version="1.0" encoding="iso-8859-1"?>
<!-- Generator: Adobe Illustrator 16.0.0, SVG Export Plug-In . SVG Version: 6.00 Build 0)  -->
<!DOCTYPE svg PUBLIC "-//W3C//DTD SVG 1.1//EN" "http://www.w3.org/Graphics/SVG/1.1/DTD/svg11.dtd">
<svg version="1.1" id="Capa_1" xmlns="http://www.w3.org/2000/svg" xmlns:xlink="http://www.w3.org/1999/xlink" x="0px" y="0px"
	 width="54.976px" height="54.976px" viewBox="0 0 54.976 54.976" style="enable-background:new 0 0 54.976 54.976;"
	 xml:space="preserve">
<g>
	<path d="M15.837,5.033v28.858c-1.528-0.671-3.258-1.093-5.123-1.093C4.796,32.798,0,36.644,0,41.371
		c0,4.735,4.798,8.572,10.714,8.572c5.917,0,10.715-3.837,10.715-8.572V17.612h27.956v16.279c-1.526-0.671-3.26-1.093-5.123-1.093
		c-5.92,0-10.715,3.846-10.715,8.572c0,4.735,4.795,8.572,10.715,8.572c5.917,0,10.714-3.837,10.714-8.572V5.033H15.837z
		 M21.424,14.819v-4.192H49.38v4.192H21.424z"/>
</g>
<g>
</g>
<g>
</g>
<g>
</g>
<g>
</g>
<g>
</g>
<g>
</g>
<g>
</g>
<g>
</g>
<g>
</g>
<g>
</g>
<g>
</g>
<g>
</g>
<g>
</g>
<g>
</g>
<g>
</g>
</svg>
