<?xml version="1.0" encoding="iso-8859-1"?>
<!-- Generator: Adobe Illustrator 18.1.1, SVG Export Plug-In . SVG Version: 6.00 Build 0)  -->
<svg version="1.1" id="Capa_1" xmlns="http://www.w3.org/2000/svg" xmlns:xlink="http://www.w3.org/1999/xlink" x="0px" y="0px"
	 viewBox="0 0 179.006 179.006" style="enable-background:new 0 0 179.006 179.006;" xml:space="preserve">
<g>
	<g>
		<polygon style="fill:#010002;" points="20.884,116.354 11.934,116.354 11.934,32.818 137.238,32.818 137.238,41.768 
			149.172,41.768 149.172,20.884 0,20.884 0,128.288 20.884,128.288 		"/>
		<path style="fill:#010002;" d="M29.834,50.718v107.404h149.172V50.718H29.834z M123.58,136.856c-0.024,0-0.048,0-0.072,0
			c-0.012,0-1.187,0-2.81,0c-3.795,0-10.078,0-10.114,0c-19.625,0-39.25,0-58.875,0v-3.473c0.907-0.859,2.005-1.551,3.168-2.166
			c1.981-1.062,3.938-2.148,5.967-3.115c1.957-0.937,3.998-1.742,6.003-2.59c1.886-0.8,3.801-1.545,5.674-2.363
			c0.328-0.137,0.638-0.489,0.776-0.811c0.424-1.05,0.782-2.124,1.116-3.216c0.245-0.823,0.412-1.635,1.468-1.862
			c0.263-0.048,0.597-0.513,0.627-0.817c0.209-1.581,0.37-3.168,0.489-4.744c0.024-0.346-0.149-0.776-0.382-1.038
			c-1.384-1.557-2.142-3.353-2.47-5.406c-0.161-1.038-0.74-1.993-1.038-3.013c-0.394-1.366-0.728-2.745-1.038-4.129
			c-0.119-0.501-0.048-1.038-0.125-1.551c-0.125-0.746-0.107-1.319,0.806-1.611c0.233-0.084,0.442-0.668,0.453-1.032
			c0.048-2.214,0.012-4.433,0.024-6.641c0.012-1.36,0-2.727,0.107-4.087c0.185-2.596,1.718-4.421,3.622-5.997
			c2.787-2.303,6.128-3.377,9.565-4.189c1.808-0.424,3.64-0.68,5.478-0.979c0.489-0.078,0.996-0.006,1.498-0.006
			c0.095,0.125,0.161,0.251,0.251,0.37c-0.376,0.28-0.811,0.513-1.134,0.847c-0.746,0.746-0.674,1.265,0.125,1.945
			c1.647,1.396,3.318,2.804,4.911,4.254c1.42,1.271,1.969,2.942,1.981,4.815c0,3.222,0,6.45,0,9.672c0,0.65-0.048,1.313,0.776,1.605
			c0.167,0.066,0.352,0.424,0.34,0.632c-0.131,1.641-0.322,3.294-0.489,4.941c-0.006,0.066-0.018,0.131-0.054,0.185
			c-1.486,2.166-1.677,4.827-2.733,7.148c-0.048,0.09-0.078,0.191-0.125,0.257c-1.969,2.315-1.36,5.102-1.396,7.769
			c0,0.269,0.197,0.686,0.406,0.782c0.806,0.358,1.002,1.044,1.223,1.772c0.352,1.14,0.692,2.303,1.181,3.389
			c0.179,0.394,0.716,0.746,1.17,0.907c0.943,0.364,1.886,0.74,2.834,1.11c2.363-1.002,5.734-2.434,6.385-2.727
			c0.919-0.418,1.611-1.349,2.44-1.993c0.37-0.28,0.817-0.537,1.259-0.615c1.504-0.239,2.16-0.77,2.518-2.255
			c0.465-1.945,0.806-3.89,0.388-5.913c-0.167-0.877-0.489-1.45-1.366-1.784c-1.778-0.698-3.532-1.474-5.293-2.22
			c-1.319-0.555-1.396-1.02-0.919-2.387c1.516-4.296,2.631-8.658,3.007-13.258c0.28-3.443,0.048-6.981,1.307-10.305
			c0.871-2.339,2.339-4.505,4.696-5.203c1.796-0.531,3.359-1.742,5.269-1.999c0.358-0.018,0.674-0.072,1.026-0.054
			c0.042,0.006,0.078,0.012,0.113,0.012c4.529,0.286,9.923,3.019,11.2,8.043c0.066,0.257,0.101,0.525,0.143,0.788h0.125
			c0.698,2.852,0.621,5.818,0.859,8.712c0.37,4.594,1.504,8.962,3.019,13.264c0.477,1.366,0.394,1.832-0.919,2.381
			c-1.76,0.746-3.514,1.522-5.299,2.22c-0.871,0.34-1.181,0.895-1.36,1.784c-0.406,2.029-0.084,3.968,0.388,5.913
			c0.346,1.48,1.014,2.011,2.512,2.25c0.442,0.078,0.883,0.334,1.259,0.615c0.829,0.644,1.516,1.569,2.44,1.993
			c3.234,1.468,6.51,2.888,9.839,4.117c5.114,1.88,8.509,5.478,9.326,11.045C145.944,136.856,134.768,136.856,123.58,136.856z"/>
	</g>
</g>
<g>
</g>
<g>
</g>
<g>
</g>
<g>
</g>
<g>
</g>
<g>
</g>
<g>
</g>
<g>
</g>
<g>
</g>
<g>
</g>
<g>
</g>
<g>
</g>
<g>
</g>
<g>
</g>
<g>
</g>
</svg>
