<?xml version="1.0" encoding="iso-8859-1"?>
<!-- Generator: Adobe Illustrator 18.1.1, SVG Export Plug-In . SVG Version: 6.00 Build 0)  -->
<svg version="1.1" id="Capa_1" xmlns="http://www.w3.org/2000/svg" xmlns:xlink="http://www.w3.org/1999/xlink" x="0px" y="0px"
	 viewBox="0 0 139.252 139.252" style="enable-background:new 0 0 139.252 139.252;" xml:space="preserve">
<g>
	<g>
		<g>
			<path style="fill:#010002;" d="M85.865,134.944c0-13.789,8.562-25.586,20.627-30.449c-0.955-0.865-1.862-1.814-2.87-2.59
				c-0.823-0.621-1.814-1.205-2.781-1.366c-3.347-0.525-4.815-1.713-5.597-4.988c-1.038-4.32-1.772-8.61-0.871-13.103
				c0.376-1.957,1.092-3.204,2.995-3.95c3.95-1.551,7.84-3.264,11.743-4.911c2.918-1.241,3.109-2.261,2.053-5.281
				c-3.359-9.523-5.865-19.201-6.671-29.387c-0.519-6.426-0.352-12.996-1.909-19.315h-0.245c-0.125-0.579-0.191-1.17-0.358-1.742
				C99.159,6.728,87.196,0.672,77.177,0.039c-0.084-0.006-0.161-0.024-0.245-0.03c-0.77-0.042-1.492,0.066-2.25,0.113
				c-4.231,0.585-7.691,3.252-11.707,4.433c-5.233,1.533-8.443,6.337-10.4,11.534c-2.775,7.357-2.25,15.204-2.87,22.829
				c-0.811,10.185-3.306,19.864-6.671,29.387c-1.05,3.019-0.871,4.052,2.053,5.281c3.89,1.647,7.787,3.359,11.749,4.911
				c1.897,0.746,2.613,1.993,2.995,3.95c0.895,4.493,0.161,8.789-0.871,13.103c-0.794,3.282-2.255,4.463-5.597,4.988
				c-0.979,0.155-1.957,0.74-2.787,1.366c-1.85,1.408-3.353,3.461-5.394,4.386c-7.19,3.27-14.428,6.408-21.809,9.141
				c-11.343,4.195-18.861,11.486-20.705,23.82c24.786,0,49.567,0,74.359,0c0.054,0,0.113,0,0.155,0c3.007,0,6.015,0,9.022,0
				C85.99,137.844,85.865,136.412,85.865,134.944z"/>
		</g>
		<rect x="100.782" y="131.961" style="fill:#010002;" width="35.801" height="5.967"/>
	</g>
</g>
<g>
</g>
<g>
</g>
<g>
</g>
<g>
</g>
<g>
</g>
<g>
</g>
<g>
</g>
<g>
</g>
<g>
</g>
<g>
</g>
<g>
</g>
<g>
</g>
<g>
</g>
<g>
</g>
<g>
</g>
</svg>
