<?xml version="1.0" encoding="iso-8859-1"?>
<!-- Generator: Adobe Illustrator 16.0.0, SVG Export Plug-In . SVG Version: 6.00 Build 0)  -->
<!DOCTYPE svg PUBLIC "-//W3C//DTD SVG 1.1//EN" "http://www.w3.org/Graphics/SVG/1.1/DTD/svg11.dtd">
<svg version="1.1" id="Capa_1" xmlns="http://www.w3.org/2000/svg" xmlns:xlink="http://www.w3.org/1999/xlink" x="0px" y="0px"
	 width="63.431px" height="63.431px" viewBox="0 0 63.431 63.431" style="enable-background:new 0 0 63.431 63.431;"
	 xml:space="preserve">
<g>
	<g>
		<path d="M28.661,49.83c0,0.002-0.004,0.002-0.004,0.002C21.072,44.15,6.403,31.244,6.403,21.92c0-6.033,3.165-9.78,8.271-9.78
			c3.791,0,8.058,2.111,11.712,5.791l2.274,2.298l0.004-0.002v-8.895l-0.004,0.002C24.288,7.699,19.409,5.73,14.677,5.73
			C6.031,5.73,0,12.388,0,21.918c0,15.291,24.083,32.574,26.828,34.498l1.833,1.281h0.004L28.661,49.83L28.661,49.83z"/>
		<path d="M51.463,8.953c-4.667-0.824-9.813,0.27-14.747,3.086l-1.542,8.757l2.637-1.865c4.231-2.989,8.805-4.331,12.541-3.669
			c5.025,0.885,7.496,5.127,6.446,11.069c-1.614,9.178-18.308,19.344-26.767,23.62L28.665,57.7l2.03-0.942
			c3.04-1.414,29.757-14.255,32.413-29.314C64.759,18.056,59.969,10.453,51.463,8.953z"/>
	</g>
</g>
<g>
</g>
<g>
</g>
<g>
</g>
<g>
</g>
<g>
</g>
<g>
</g>
<g>
</g>
<g>
</g>
<g>
</g>
<g>
</g>
<g>
</g>
<g>
</g>
<g>
</g>
<g>
</g>
<g>
</g>
</svg>
