<?xml version="1.0" encoding="iso-8859-1"?>
<!-- Generator: Adobe Illustrator 18.1.1, SVG Export Plug-In . SVG Version: 6.00 Build 0)  -->
<svg version="1.1" id="Capa_1" xmlns="http://www.w3.org/2000/svg" xmlns:xlink="http://www.w3.org/1999/xlink" x="0px" y="0px"
	 viewBox="0 0 141.191 141.191" style="enable-background:new 0 0 141.191 141.191;" xml:space="preserve">
<g>
	<g>
		<path style="fill:#010002;" d="M82.723,136.871c0-17.775,14.219-32.257,31.869-32.77c-4.815-2.011-9.648-3.95-14.523-5.824
			c-0.871-0.334-1.897-0.979-2.25-1.748c-0.943-2.088-1.611-4.302-2.273-6.498c-0.43-1.39-0.806-2.709-2.351-3.377
			c-0.412-0.179-0.788-0.991-0.782-1.504c0.084-5.096-1.092-10.43,2.661-14.858c0.125-0.137,0.161-0.334,0.245-0.501
			c2.041-4.451,2.399-9.541,5.245-13.682c0.072-0.095,0.095-0.233,0.101-0.358c0.334-3.156,0.668-6.313,0.937-9.475
			c0.03-0.394-0.328-1.086-0.65-1.205c-1.569-0.561-1.48-1.814-1.474-3.073c0.006-6.176,0-12.351-0.006-18.521
			c-0.006-3.586-1.056-6.784-3.777-9.225c-3.091-2.775-6.259-5.46-9.428-8.145c-1.533-1.295-1.665-2.291-0.233-3.717
			c0.627-0.627,1.444-1.08,2.184-1.617c-0.155-0.239-0.322-0.483-0.477-0.722c-0.961,0-1.939-0.125-2.87,0.018
			c-3.497,0.567-7.029,1.062-10.466,1.874c-6.587,1.551-12.984,3.61-18.324,8.014c-3.664,3.013-6.575,6.522-6.939,11.492
			c-0.191,2.596-0.161,5.215-0.185,7.817c-0.03,4.236,0.03,8.485-0.054,12.721c-0.018,0.692-0.418,1.826-0.877,1.981
			c-1.724,0.555-1.766,1.653-1.533,3.085c0.155,0.979,0.024,2.005,0.251,2.966c0.597,2.655,1.217,5.299,1.981,7.912
			c0.573,1.951,1.677,3.783,1.981,5.758c0.621,3.95,2.076,7.387,4.738,10.364c0.442,0.489,0.776,1.319,0.728,1.969
			c-0.203,3.043-0.519,6.086-0.925,9.099c-0.078,0.585-0.704,1.468-1.211,1.569c-2.017,0.418-2.333,1.981-2.816,3.55
			c-0.632,2.088-1.319,4.147-2.118,6.164c-0.251,0.621-0.871,1.277-1.492,1.545c-3.598,1.575-7.244,3.001-10.86,4.523
			c-3.855,1.617-7.739,3.162-11.504,4.958c-3.872,1.856-7.626,3.932-11.415,5.967c-2.232,1.193-4.32,2.524-6.08,4.165v23.629
			c25.103,0,50.193,0,75.29,0C82.86,139.777,82.723,138.345,82.723,136.871z"/>
		<rect x="97.64" y="133.888" style="fill:#010002;" width="35.801" height="5.967"/>
	</g>
</g>
<g>
</g>
<g>
</g>
<g>
</g>
<g>
</g>
<g>
</g>
<g>
</g>
<g>
</g>
<g>
</g>
<g>
</g>
<g>
</g>
<g>
</g>
<g>
</g>
<g>
</g>
<g>
</g>
<g>
</g>
</svg>
