<?xml version="1.0" encoding="iso-8859-1"?>
<!-- Generator: Adobe Illustrator 16.0.0, SVG Export Plug-In . SVG Version: 6.00 Build 0)  -->
<!DOCTYPE svg PUBLIC "-//W3C//DTD SVG 1.1//EN" "http://www.w3.org/Graphics/SVG/1.1/DTD/svg11.dtd">
<svg version="1.1" id="Capa_1" xmlns="http://www.w3.org/2000/svg" xmlns:xlink="http://www.w3.org/1999/xlink" x="0px" y="0px"
	 width="65.147px" height="65.147px" viewBox="0 0 65.147 65.147" style="enable-background:new 0 0 65.147 65.147;"
	 xml:space="preserve">
<g>
	<g>
		<polygon points="18.256,9.373 44.654,9.373 44.654,0 2.208,0 2.208,53.539 12.477,41.994 18.256,41.994 		"/>
		<path d="M20.498,11.613v53.535l10.269-11.538h10.742V39.061h-5.663v-6.557h5.661v-4.834c0-5.613,3.426-8.668,8.431-8.668
			c2.397,0,4.455,0.18,5.06,0.256v5.866l-3.472,0.002c-2.724,0-3.248,1.294-3.248,3.19v4.188h6.489l-0.846,6.56h-5.644v14.551
			h14.662V11.615L20.498,11.613L20.498,11.613z"/>
	</g>
</g>
<g>
</g>
<g>
</g>
<g>
</g>
<g>
</g>
<g>
</g>
<g>
</g>
<g>
</g>
<g>
</g>
<g>
</g>
<g>
</g>
<g>
</g>
<g>
</g>
<g>
</g>
<g>
</g>
<g>
</g>
</svg>
