<?xml version="1.0" encoding="iso-8859-1"?>
<!-- Generator: Adobe Illustrator 16.0.0, SVG Export Plug-In . SVG Version: 6.00 Build 0)  -->
<!DOCTYPE svg PUBLIC "-//W3C//DTD SVG 1.1//EN" "http://www.w3.org/Graphics/SVG/1.1/DTD/svg11.dtd">
<svg version="1.1" id="Capa_1" xmlns="http://www.w3.org/2000/svg" xmlns:xlink="http://www.w3.org/1999/xlink" x="0px" y="0px"
	 width="49.053px" height="49.052px" viewBox="0 0 49.053 49.052" style="enable-background:new 0 0 49.053 49.052;"
	 xml:space="preserve">
<g>
	<path d="M40.763,0H8.29C5.657,0,3.504,2.153,3.504,4.788v39.476c0,2.635,2.153,4.788,4.786,4.788h32.473
		c2.633,0,4.786-2.153,4.786-4.788V4.788C45.549,2.153,43.396,0,40.763,0z M32.551,39.211l-8.024-4.22l-8.024,4.22l1.533-8.935
		l-6.492-6.328l8.971-1.308l4.012-8.126l4.01,8.126l8.974,1.308l-6.491,6.328L32.551,39.211z M42.045,10.803H7.008V4.788
		c0-0.696,0.586-1.284,1.282-1.284h32.471c0.693,0,1.282,0.588,1.282,1.284v6.015H42.045z"/>
</g>
<g>
</g>
<g>
</g>
<g>
</g>
<g>
</g>
<g>
</g>
<g>
</g>
<g>
</g>
<g>
</g>
<g>
</g>
<g>
</g>
<g>
</g>
<g>
</g>
<g>
</g>
<g>
</g>
<g>
</g>
</svg>
