<?xml version="1.0" encoding="iso-8859-1"?>
<!-- Generator: Adobe Illustrator 16.0.0, SVG Export Plug-In . SVG Version: 6.00 Build 0)  -->
<!DOCTYPE svg PUBLIC "-//W3C//DTD SVG 1.1//EN" "http://www.w3.org/Graphics/SVG/1.1/DTD/svg11.dtd">
<svg version="1.1" id="Capa_1" xmlns="http://www.w3.org/2000/svg" xmlns:xlink="http://www.w3.org/1999/xlink" x="0px" y="0px"
	 width="60.731px" height="60.731px" viewBox="0 0 60.731 60.731" style="enable-background:new 0 0 60.731 60.731;"
	 xml:space="preserve">
<g>
	<g>
		<g>
			<path d="M30.367,46.666c0-1.337,1.092-2.432,2.431-2.432h2.226V40.29c0-5.47,4.448-9.92,9.918-9.92
				c2.891,0,5.475,1.264,7.288,3.248V9.843c0-2.74-2.24-4.979-4.978-4.979H13.483c-2.737,0-4.978,2.24-4.978,4.979v41.055
				c0,2.739,2.24,4.979,4.978,4.979h16.885L30.367,46.666L30.367,46.666z M15.791,18.221h29.151v2.429H15.791V18.221z
				 M15.791,25.509h29.151v2.43H15.791V25.509z M15.791,32.797h19.404c-0.582,0.748-1.09,1.554-1.487,2.43H15.791V32.797z
				 M15.791,40.085h16.825c0,0.066-0.022,0.135-0.022,0.203v1.515c-0.833,0.039-1.607,0.301-2.287,0.709H15.788L15.791,40.085
				L15.791,40.085z"/>
			<path d="M44.941,34.617c-3.125,0-5.668,2.544-5.668,5.671v3.941h11.339v-3.941C50.612,37.161,48.066,34.617,44.941,34.617z"/>
		</g>
		<path d="M30.367,58.304H13.481c-4.085,0-7.407-3.323-7.407-7.408V9.84c0-4.085,3.324-7.409,7.407-7.409H47.25
			c4.085,0,7.406,3.323,7.406,7.409v28.455c0.135,0.639,0.203,1.312,0.203,1.993v3.941h2.227V9.838C57.086,4.413,52.674,0,47.25,0
			H13.481C8.058,0,3.645,4.413,3.645,9.838v41.055c0,5.422,4.413,9.839,9.836,9.839h16.886V58.304z"/>
	</g>
</g>
<g>
</g>
<g>
</g>
<g>
</g>
<g>
</g>
<g>
</g>
<g>
</g>
<g>
</g>
<g>
</g>
<g>
</g>
<g>
</g>
<g>
</g>
<g>
</g>
<g>
</g>
<g>
</g>
<g>
</g>
</svg>
