<?xml version="1.0" encoding="iso-8859-1"?>
<!-- Generator: Adobe Illustrator 16.0.0, SVG Export Plug-In . SVG Version: 6.00 Build 0)  -->
<!DOCTYPE svg PUBLIC "-//W3C//DTD SVG 1.1//EN" "http://www.w3.org/Graphics/SVG/1.1/DTD/svg11.dtd">
<svg version="1.1" id="Capa_1" xmlns="http://www.w3.org/2000/svg" xmlns:xlink="http://www.w3.org/1999/xlink" x="0px" y="0px"
	 width="60.731px" height="60.731px" viewBox="0 0 60.731 60.731" style="enable-background:new 0 0 60.731 60.731;"
	 xml:space="preserve">
<g>
	<path d="M57.839,1.446V3.38h-4.248V1.446H7.134V3.38H2.889V1.446H0v57.839h2.892v-1.935h4.245v1.935h46.455v-1.935h4.248v1.935
		h2.892V1.446H57.839L57.839,1.446z M7.139,51.178H2.892l0.002-3.385h4.245V51.178z M7.139,41.616H2.894v-3.381l4.245,0.005V41.616z
		 M7.139,32.054H2.894v-3.369h4.245V32.054z M7.139,22.496H2.894v-3.38h4.245V22.496z M7.139,12.938H2.894V9.562l4.245-0.004V12.938
		z M49.162,58.56H11.567L11.565,48.44h37.597V58.56z M49.162,43.377l-37.594,0.004l-0.002-26.036h37.597V43.377z M49.162,12.292
		H11.567V2.167h37.594V12.292z M57.839,51.174h-4.243v-3.381h4.243V51.174z M57.839,41.616h-4.248v-3.381h4.248V41.616z
		 M57.839,32.054h-4.243v-3.369h4.243V32.054z M57.839,22.496l-4.243-0.005v-3.379h4.243V22.496z M57.839,12.938h-4.243V9.562
		l4.243-0.004V12.938z"/>
</g>
<g>
</g>
<g>
</g>
<g>
</g>
<g>
</g>
<g>
</g>
<g>
</g>
<g>
</g>
<g>
</g>
<g>
</g>
<g>
</g>
<g>
</g>
<g>
</g>
<g>
</g>
<g>
</g>
<g>
</g>
</svg>
