<?xml version="1.0" encoding="iso-8859-1"?>
<!-- Generator: Adobe Illustrator 18.1.1, SVG Export Plug-In . SVG Version: 6.00 Build 0)  -->
<svg version="1.1" id="Capa_1" xmlns="http://www.w3.org/2000/svg" xmlns:xlink="http://www.w3.org/1999/xlink" x="0px" y="0px"
	 viewBox="0 0 167.496 167.496" style="enable-background:new 0 0 167.496 167.496;" xml:space="preserve">
<g>
	<path style="fill:#010002;" d="M123.854,119.788l43.642-43.636l-43.934-43.934V6.179H98.388v6.516h-8.521
		c-10.418,0-24.422,4.809-31.135,10.681S38.003,34.05,27.585,34.05H0c0,0,20.305,23.724,20.592,33.558
		C20.914,78.497,0,106.01,0,106.01h27.585c3.783,0,8.014-0.68,12.202-1.784l-11.098,11.104l45.975,45.987v-23.742h23.724v10.442
		h25.174L123.854,119.788z M127.882,45.554l30.592,30.592l-30.592,30.592v-14.72H78.691V60.262h49.191V45.554z M68.303,131.214
		v14.72l-30.604-30.598l30.604-30.592v14.714h49.179v31.762L68.303,131.214L68.303,131.214z"/>
</g>
<g>
</g>
<g>
</g>
<g>
</g>
<g>
</g>
<g>
</g>
<g>
</g>
<g>
</g>
<g>
</g>
<g>
</g>
<g>
</g>
<g>
</g>
<g>
</g>
<g>
</g>
<g>
</g>
<g>
</g>
</svg>
