<?xml version="1.0" encoding="iso-8859-1"?>
<!-- Generator: Adobe Illustrator 16.0.0, SVG Export Plug-In . SVG Version: 6.00 Build 0)  -->
<!DOCTYPE svg PUBLIC "-//W3C//DTD SVG 1.1//EN" "http://www.w3.org/Graphics/SVG/1.1/DTD/svg11.dtd">
<svg version="1.1" id="Capa_1" xmlns="http://www.w3.org/2000/svg" xmlns:xlink="http://www.w3.org/1999/xlink" x="0px" y="0px"
	 width="51.939px" height="51.939px" viewBox="0 0 51.939 51.939" style="enable-background:new 0 0 51.939 51.939;"
	 xml:space="preserve">
<g>
	<path d="M33.166,11.195H18.775c-1.502,0-2.714,1.217-2.714,2.714l0.002,24.478c0.108,1.318,1.228,2.356,2.554,2.356H33.33
		c1.318,0,2.445-1.035,2.55-2.356V13.909C35.875,12.412,34.666,11.195,33.166,11.195z"/>
	<path d="M43.467,29.405c3.072-3.064,2.121-9.259-3.202-9.259l-14.021,0.009c0.533-2.968,1.302-7.89,1.273-8.354
		c-0.294-4.401-3.103-9.757-3.221-9.976C23.781,0.871,21.2-0.42,18.599,0.133c-3.362,0.72-3.706,2.864-3.691,3.455
		c0,0,0.147,5.866,0.159,7.431c-1.474,3.241-6.263,11.312-8.334,13.164v1.098v2.028v20.409v1.209v1.776
		c0.953,0.598,2.1,1.236,3.558,1.236h23.742c8.873,0,7.92-7.879,7.112-8.953c1.499-1.633,2.427-4.517,1.159-6.788
		C43.284,35.165,44.995,32.333,43.467,29.405z"/>
</g>
<g>
</g>
<g>
</g>
<g>
</g>
<g>
</g>
<g>
</g>
<g>
</g>
<g>
</g>
<g>
</g>
<g>
</g>
<g>
</g>
<g>
</g>
<g>
</g>
<g>
</g>
<g>
</g>
<g>
</g>
</svg>
