<?xml version="1.0" encoding="iso-8859-1"?>
<!-- Generator: Adobe Illustrator 18.1.1, SVG Export Plug-In . SVG Version: 6.00 Build 0)  -->
<svg version="1.1" id="Capa_1" xmlns="http://www.w3.org/2000/svg" xmlns:xlink="http://www.w3.org/1999/xlink" x="0px" y="0px"
	 viewBox="0 0 157.233 157.233" style="enable-background:new 0 0 157.233 157.233;" xml:space="preserve">
<g>
	<g>
		<path style="fill:#010002;" d="M46.243,91.973H20.95L54.806,64.89H17.901c-1.617,0-2.936-1.307-2.936-2.924s1.313-2.93,2.936-2.93
			h44.232l7.59-6.08H17.901c-1.617,0-2.936-1.307-2.936-2.924s1.313-2.93,2.936-2.93h59.15l18.42-14.738v-4.398
			c0-6.564-5.37-11.934-11.934-11.934H11.934C5.37,16.033,0,21.403,0,27.967v89.503c0,6.564,5.37,11.934,11.934,11.934h34.31
			C46.243,129.404,46.243,91.973,46.243,91.973z M17.901,35.169h59.669c1.617,0,2.936,1.313,2.936,2.93
			c0,1.617-1.313,2.924-2.936,2.924H17.901c-1.617,0-2.936-1.307-2.936-2.924C14.965,36.481,16.284,35.169,17.901,35.169z"/>
		<rect x="86.514" y="84.658" style="fill:#010002;" width="17.901" height="4.72"/>
		<g>
			<path style="fill:#010002;" d="M134.004,68.923V44.065h-13.425v14.112L95.464,38.098l-61.763,49.4h17.012V141.2h89.503V87.498
				h17.018L134.004,68.923z M133.974,134.953h-22.591V93.465H79.562v41.488H56.966V84.539l38.516-30.807l38.504,30.807
				L133.974,134.953L133.974,134.953z"/>
			<rect x="86.514" y="84.658" style="fill:#010002;" width="17.901" height="4.72"/>
		</g>
	</g>
</g>
<g>
</g>
<g>
</g>
<g>
</g>
<g>
</g>
<g>
</g>
<g>
</g>
<g>
</g>
<g>
</g>
<g>
</g>
<g>
</g>
<g>
</g>
<g>
</g>
<g>
</g>
<g>
</g>
<g>
</g>
</svg>
