<?xml version="1.0" encoding="iso-8859-1"?>
<!-- Generator: Adobe Illustrator 18.1.1, SVG Export Plug-In . SVG Version: 6.00 Build 0)  -->
<svg version="1.1" id="Capa_1" xmlns="http://www.w3.org/2000/svg" xmlns:xlink="http://www.w3.org/1999/xlink" x="0px" y="0px"
	 viewBox="0 0 185.999 185.999" style="enable-background:new 0 0 185.999 185.999;" xml:space="preserve">
<g>
	<g>
		<rect x="112.487" y="116.306" style="fill:#010002;" width="73.512" height="24.44"/>
		<polygon style="fill:#010002;" points="120.489,80.785 140.538,96.824 112.487,96.824 112.487,105.226 185.999,105.226 
			185.999,80.785 		"/>
		<polygon style="fill:#010002;" points="106.264,45.265 106.264,69.395 106.634,69.699 185.999,69.699 185.999,45.265 		"/>
		<g>
			<path style="fill:#010002;" d="M100.297,72.271V47.413H86.872V61.53L61.769,41.446L0,90.852h17.023v53.702h89.503V90.852h17.006
				L100.297,72.271z M100.273,138.312H77.677V96.824H45.861v41.488H23.265V87.886l38.504-30.807l38.504,30.807
				C100.273,87.886,100.273,138.312,100.273,138.312z"/>
			<rect x="52.819" y="87.999" style="fill:#010002;" width="17.901" height="4.732"/>
		</g>
		<rect x="52.819" y="87.999" style="fill:#010002;" width="17.901" height="4.732"/>
	</g>
</g>
<g>
</g>
<g>
</g>
<g>
</g>
<g>
</g>
<g>
</g>
<g>
</g>
<g>
</g>
<g>
</g>
<g>
</g>
<g>
</g>
<g>
</g>
<g>
</g>
<g>
</g>
<g>
</g>
<g>
</g>
</svg>
