<?xml version="1.0" encoding="iso-8859-1"?>
<!-- Generator: Adobe Illustrator 18.1.1, SVG Export Plug-In . SVG Version: 6.00 Build 0)  -->
<svg version="1.1" id="Capa_1" xmlns="http://www.w3.org/2000/svg" xmlns:xlink="http://www.w3.org/1999/xlink" x="0px" y="0px"
	 viewBox="0 0 184.973 184.973" style="enable-background:new 0 0 184.973 184.973;" xml:space="preserve">
<g>
	<g>
		<path style="fill:#010002;" d="M149.172,44.752V20.884H0v107.404h23.867v35.801h161.105V44.752H149.172z M173.039,152.155H35.801
			v-95.47h137.238V152.155z"/>
		<path style="fill:#010002;" d="M139.225,133.497c-0.847-0.871-1.862-1.611-3.013-2.208c-5.83-2.983-11.862-5.466-17.972-7.805
			c-0.448-0.173-0.991-0.513-1.175-0.925c-0.495-1.104-0.853-2.261-1.199-3.419c-0.221-0.74-0.418-1.432-1.235-1.784
			c-0.221-0.095-0.418-0.525-0.406-0.794c0.036-2.685-0.585-5.495,1.396-7.829c0.072-0.072,0.095-0.173,0.125-0.257
			c1.074-2.351,1.259-5.03,2.763-7.214c0.036-0.048,0.048-0.125,0.048-0.185c0.173-1.659,0.364-3.33,0.495-4.988
			c0.012-0.209-0.167-0.573-0.346-0.627c-0.835-0.298-0.782-0.955-0.782-1.617c0-3.258,0-6.51,0-9.762
			c0-1.891-0.561-3.574-1.981-4.857c-1.623-1.468-3.306-2.876-4.976-4.296c-0.806-0.68-0.871-1.205-0.125-1.957
			c0.334-0.334,0.764-0.573,1.146-0.853c-0.084-0.125-0.161-0.251-0.245-0.376c-0.501,0-1.026-0.072-1.516,0.006
			c-1.85,0.298-3.705,0.561-5.525,0.991c-3.467,0.823-6.838,1.903-9.648,4.225c-1.933,1.587-3.467,3.437-3.658,6.056
			c-0.101,1.366-0.09,2.745-0.101,4.117c-0.012,2.238,0.012,4.475-0.024,6.707c-0.006,0.364-0.221,0.961-0.465,1.044
			c-0.907,0.292-0.931,0.871-0.806,1.623c0.084,0.513,0.012,1.062,0.131,1.563c0.316,1.396,0.644,2.798,1.044,4.171
			c0.298,1.026,0.883,1.993,1.044,3.031c0.328,2.088,1.098,3.89,2.494,5.466c0.233,0.257,0.412,0.698,0.382,1.038
			c-0.107,1.611-0.274,3.204-0.489,4.803c-0.042,0.31-0.376,0.77-0.638,0.829c-1.062,0.221-1.229,1.05-1.486,1.868
			c-0.334,1.092-0.692,2.184-1.116,3.246c-0.131,0.328-0.459,0.674-0.788,0.817c-1.891,0.829-3.819,1.587-5.722,2.375
			c-2.029,0.859-4.075,1.665-6.056,2.613c-2.041,0.979-4.022,2.082-6.015,3.145c-1.175,0.621-2.273,1.325-3.204,2.196v3.503
			c23.205,0,46.41,0,69.615,0v-3.676h0.03V133.497z"/>
	</g>
</g>
<g>
</g>
<g>
</g>
<g>
</g>
<g>
</g>
<g>
</g>
<g>
</g>
<g>
</g>
<g>
</g>
<g>
</g>
<g>
</g>
<g>
</g>
<g>
</g>
<g>
</g>
<g>
</g>
<g>
</g>
</svg>
