<?xml version="1.0" encoding="iso-8859-1"?>
<!-- Generator: Adobe Illustrator 16.0.0, SVG Export Plug-In . SVG Version: 6.00 Build 0)  -->
<!DOCTYPE svg PUBLIC "-//W3C//DTD SVG 1.1//EN" "http://www.w3.org/Graphics/SVG/1.1/DTD/svg11.dtd">
<svg version="1.1" id="Capa_1" xmlns="http://www.w3.org/2000/svg" xmlns:xlink="http://www.w3.org/1999/xlink" x="0px" y="0px"
	 width="70.074px" height="70.074px" viewBox="0 0 70.074 70.074" style="enable-background:new 0 0 70.074 70.074;"
	 xml:space="preserve">
<g>
	<g>
		<polygon points="8.175,16.351 58.396,16.351 58.396,8.175 0,8.175 0,50.219 8.175,50.219 		"/>
		<path d="M11.679,19.854v42.045h58.396V19.854H11.679z M54.501,53.687c-9.08,0-18.167,0-27.251,0v-1.373
			c0.361-0.343,0.794-0.614,1.254-0.858c0.78-0.419,1.556-0.848,2.354-1.231c0.775-0.372,1.577-0.688,2.371-1.021
			c0.745-0.315,1.5-0.614,2.24-0.934c0.129-0.057,0.254-0.191,0.308-0.321c0.166-0.415,0.307-0.842,0.437-1.269
			c0.099-0.326,0.164-0.646,0.582-0.732c0.103-0.022,0.236-0.202,0.247-0.323c0.087-0.623,0.147-1.25,0.192-1.878
			c0.009-0.137-0.057-0.306-0.147-0.405c-0.549-0.618-0.85-1.328-0.977-2.14c-0.062-0.411-0.292-0.79-0.408-1.191
			c-0.157-0.538-0.288-1.083-0.41-1.628c-0.046-0.203-0.018-0.416-0.051-0.616c-0.049-0.294-0.04-0.524,0.316-0.634
			c0.098-0.034,0.179-0.265,0.182-0.406c0.017-0.877,0.005-1.753,0.01-2.629c0.004-0.535,0-1.078,0.039-1.612
			c0.075-1.026,0.677-1.75,1.435-2.371c1.103-0.909,2.417-1.331,3.776-1.654c0.712-0.169,1.437-0.269,2.157-0.388
			c0.196-0.031,0.397-0.002,0.594-0.002c0.036,0.049,0.066,0.098,0.101,0.147c-0.151,0.11-0.319,0.203-0.45,0.334
			c-0.294,0.294-0.267,0.5,0.048,0.765c0.652,0.554,1.312,1.107,1.944,1.683c0.561,0.501,0.779,1.163,0.779,1.901
			c0,1.273,0,2.546,0,3.826c0,0.255-0.022,0.516,0.302,0.632c0.072,0.022,0.144,0.166,0.139,0.248
			c-0.053,0.655-0.13,1.31-0.193,1.958c0,0.027-0.005,0.052-0.023,0.07c-0.588,0.857-0.659,1.907-1.081,2.824
			c-0.014,0.034-0.022,0.075-0.048,0.106c-0.775,0.913-0.536,2.013-0.545,3.063c-0.005,0.105,0.073,0.268,0.155,0.309
			c0.319,0.142,0.395,0.408,0.483,0.698c0.142,0.453,0.275,0.912,0.47,1.341c0.068,0.155,0.285,0.294,0.461,0.36
			c2.386,0.919,4.754,1.889,7.035,3.057c0.451,0.237,0.844,0.524,1.179,0.864L54.501,53.687L54.501,53.687z"/>
	</g>
</g>
<g>
</g>
<g>
</g>
<g>
</g>
<g>
</g>
<g>
</g>
<g>
</g>
<g>
</g>
<g>
</g>
<g>
</g>
<g>
</g>
<g>
</g>
<g>
</g>
<g>
</g>
<g>
</g>
<g>
</g>
</svg>
