<?xml version="1.0" encoding="iso-8859-1"?>
<!-- Generator: Adobe Illustrator 18.1.1, SVG Export Plug-In . SVG Version: 6.00 Build 0)  -->
<svg version="1.1" id="Capa_1" xmlns="http://www.w3.org/2000/svg" xmlns:xlink="http://www.w3.org/1999/xlink" x="0px" y="0px"
	 viewBox="0 0 128.55 128.55" style="enable-background:new 0 0 128.55 128.55;" xml:space="preserve">
<g>
	<g>
		<path style="fill:#010002;" d="M116.324,1.623H33.379c-6.725,0-12.232,5.501-12.232,12.232v41.47L6.492,62.658V4.606H0v119.337
			h6.492V65.892l14.655,7.333v41.47c0,6.731,5.507,12.232,12.232,12.232h82.945c6.725,0,12.226-5.501,12.226-12.232V13.855
			C128.544,7.124,123.049,1.623,116.324,1.623z M119.594,112.231H30.091V40.628h89.503V112.231z"/>
		<rect x="42.031" y="58.529" style="fill:#010002;" width="65.636" height="5.967"/>
		<rect x="42.031" y="76.43" style="fill:#010002;" width="65.636" height="5.967"/>
		<rect x="42.031" y="94.33" style="fill:#010002;" width="65.636" height="5.967"/>
	</g>
</g>
<g>
</g>
<g>
</g>
<g>
</g>
<g>
</g>
<g>
</g>
<g>
</g>
<g>
</g>
<g>
</g>
<g>
</g>
<g>
</g>
<g>
</g>
<g>
</g>
<g>
</g>
<g>
</g>
<g>
</g>
</svg>
