<?xml version="1.0" encoding="iso-8859-1"?>
<!-- Generator: Adobe Illustrator 16.0.0, SVG Export Plug-In . SVG Version: 6.00 Build 0)  -->
<!DOCTYPE svg PUBLIC "-//W3C//DTD SVG 1.1//EN" "http://www.w3.org/Graphics/SVG/1.1/DTD/svg11.dtd">
<svg version="1.1" id="Capa_1" xmlns="http://www.w3.org/2000/svg" xmlns:xlink="http://www.w3.org/1999/xlink" x="0px" y="0px"
	 width="58.396px" height="58.396px" viewBox="0 0 58.396 58.396" style="enable-background:new 0 0 58.396 58.396;"
	 xml:space="preserve">
<g>
	<path d="M0,0v58.396h58.395V0H0z M18.596,52.52c0-7.013-5.701-12.717-12.718-12.717v-8.483c11.688,0,21.199,9.512,21.199,21.2
		H18.596L18.596,52.52z M31.319,52.52c0-14.029-11.415-25.441-25.444-25.441v-8.481c18.705,0,33.918,15.217,33.918,33.917h-8.475
		V52.52z M44.039,52.52c0-21.046-17.121-38.164-38.161-38.164V5.875c25.721,0,46.642,20.926,46.642,46.645H44.039L44.039,52.52z"/>
</g>
<g>
</g>
<g>
</g>
<g>
</g>
<g>
</g>
<g>
</g>
<g>
</g>
<g>
</g>
<g>
</g>
<g>
</g>
<g>
</g>
<g>
</g>
<g>
</g>
<g>
</g>
<g>
</g>
<g>
</g>
</svg>
