<?xml version="1.0" encoding="iso-8859-1"?>
<!-- Generator: Adobe Illustrator 16.0.0, SVG Export Plug-In . SVG Version: 6.00 Build 0)  -->
<!DOCTYPE svg PUBLIC "-//W3C//DTD SVG 1.1//EN" "http://www.w3.org/Graphics/SVG/1.1/DTD/svg11.dtd">
<svg version="1.1" id="Capa_1" xmlns="http://www.w3.org/2000/svg" xmlns:xlink="http://www.w3.org/1999/xlink" x="0px" y="0px"
	 width="71.678px" height="71.678px" viewBox="0 0 71.678 71.678" style="enable-background:new 0 0 71.678 71.678;"
	 xml:space="preserve">
<g>
	<g>
		<path d="M35.84,20.753c-3.006,0-5.452,2.445-5.452,5.452v3.793h10.902v-3.791C41.286,23.199,38.847,20.753,35.84,20.753z"/>
		<path d="M67.327,8.811c-3.392-2.304-8.483-8.291-8.483-8.291s-4.692,2.939-11.079,2.939S35.836,0,35.836,0
			s-5.534,3.459-11.922,3.459c-6.386,0-11.079-2.939-11.079-2.939S7.743,6.505,4.351,8.811c1.395,1.995,8.914,13.692,3.691,29.071
			C3.055,52.576,3.95,56.247,11.034,61.705c7.776,5.988,15.071,1.579,24.802,9.973c9.734-8.394,17.029-3.98,24.808-9.973
			c7.083-5.458,7.983-9.129,2.99-23.823C58.413,22.505,65.931,10.808,67.327,8.811z M49.854,48.686c0,1.281-1.055,2.335-2.336,2.335
			H24.161c-1.284,0-2.336-1.054-2.336-2.335V32.334c0-1.284,1.052-2.336,2.336-2.336h2.14v-3.791c0-5.26,4.279-9.54,9.54-9.54
			c5.259,0,9.539,4.279,9.539,9.54v3.791h2.14c1.281,0,2.336,1.052,2.336,2.336V48.686z"/>
	</g>
</g>
<g>
</g>
<g>
</g>
<g>
</g>
<g>
</g>
<g>
</g>
<g>
</g>
<g>
</g>
<g>
</g>
<g>
</g>
<g>
</g>
<g>
</g>
<g>
</g>
<g>
</g>
<g>
</g>
<g>
</g>
</svg>
