<?xml version="1.0" encoding="iso-8859-1"?>
<!-- Generator: Adobe Illustrator 18.1.1, SVG Export Plug-In . SVG Version: 6.00 Build 0)  -->
<svg version="1.1" id="Capa_1" xmlns="http://www.w3.org/2000/svg" xmlns:xlink="http://www.w3.org/1999/xlink" x="0px" y="0px"
	 viewBox="0 0 155.139 155.139" style="enable-background:new 0 0 155.139 155.139;" xml:space="preserve">
<g>
	<path style="fill:#010002;" d="M77.563,0C34.721,0,0,34.739,0,77.569c0,42.854,34.721,77.569,77.563,77.569
		c42.848,0,77.575-34.715,77.575-77.569C155.139,34.739,120.411,0,77.563,0z M89.539,61.811
		c1.002-12.345,5.824-21.982,10.728-21.523c4.929,0.465,8.109,10.86,7.101,23.199c-1.002,12.351-5.824,21.982-10.74,21.522
		C91.711,84.545,88.53,74.162,89.539,61.811z M54.859,40.288c4.917-0.459,9.738,9.177,10.74,21.523
		c1.008,12.351-2.172,22.734-7.101,23.199c-4.905,0.459-9.726-9.171-10.728-21.523C46.762,51.148,49.943,40.76,54.859,40.288z
		 M77.563,133.825c-24.655,0-44.746-15.007-44.746-33.54c0-18.515,20.09,0,44.746,0c24.667,0,44.757-18.515,44.757,0
		C122.321,118.818,102.23,133.825,77.563,133.825z"/>
</g>
<g>
</g>
<g>
</g>
<g>
</g>
<g>
</g>
<g>
</g>
<g>
</g>
<g>
</g>
<g>
</g>
<g>
</g>
<g>
</g>
<g>
</g>
<g>
</g>
<g>
</g>
<g>
</g>
<g>
</g>
</svg>
