<?xml version="1.0" encoding="iso-8859-1"?>
<!-- Generator: Adobe Illustrator 18.1.1, SVG Export Plug-In . SVG Version: 6.00 Build 0)  -->
<svg version="1.1" id="Capa_1" xmlns="http://www.w3.org/2000/svg" xmlns:xlink="http://www.w3.org/1999/xlink" x="0px" y="0px"
	 viewBox="0 0 125.304 125.304" style="enable-background:new 0 0 125.304 125.304;" xml:space="preserve">
<g>
	<path style="fill:#010002;" d="M67.515,105.047l-12.894-12.56h-27.77V86.52h21.654L36.589,74.914l2.196-0.328H26.851v-5.967h52.514
		l5.883-11.934H26.851v-5.967h61.351l5.889-11.934H26.851v-5.967h70.188l1.414-2.864l17.901,36.267V12.232
		C116.354,5.501,110.852,0,104.128,0H21.176C14.452,0,8.95,5.501,8.95,12.232v100.84c0,6.731,5.501,12.232,12.226,12.232h42.866
		L67.515,105.047z"/>
	<polygon style="fill:#010002;" points="62.652,22.101 75.827,48.797 105.285,53.087 83.972,73.864 89.002,103.203 62.652,89.348 
		36.302,103.203 41.338,73.864 20.019,53.087 49.477,48.797 	"/>
</g>
<g>
</g>
<g>
</g>
<g>
</g>
<g>
</g>
<g>
</g>
<g>
</g>
<g>
</g>
<g>
</g>
<g>
</g>
<g>
</g>
<g>
</g>
<g>
</g>
<g>
</g>
<g>
</g>
<g>
</g>
</svg>
