<?xml version="1.0" encoding="iso-8859-1"?>
<!-- Generator: Adobe Illustrator 16.0.0, SVG Export Plug-In . SVG Version: 6.00 Build 0)  -->
<!DOCTYPE svg PUBLIC "-//W3C//DTD SVG 1.1//EN" "http://www.w3.org/Graphics/SVG/1.1/DTD/svg11.dtd">
<svg version="1.1" id="Capa_1" xmlns="http://www.w3.org/2000/svg" xmlns:xlink="http://www.w3.org/1999/xlink" x="0px" y="0px"
	 width="60.734px" height="60.733px" viewBox="0 0 60.734 60.733" style="enable-background:new 0 0 60.734 60.733;"
	 xml:space="preserve">
<g>
	<path id="path3110_2_" d="M58.473,33.181H47.821V6.291h10.652V33.181z M18.502,57.342V35.521H2.264V8.629l5.238-5.236h16.583
		l10.476,5.414h10.994v21.475H34.561l-10.647,27.06H18.502L18.502,57.342z M45.557,32.537v0.634c0,1.25,1.014,2.263,2.264,2.263
		h10.654c1.243,0,2.259-1.013,2.259-2.263V6.282c0-1.25-1.016-2.261-2.259-2.261H47.821c-1.25,0-2.264,1.011-2.264,2.261v0.29
		H35.128L25.103,1.368c-0.316-0.156-0.666-0.241-1.018-0.241H7.502c-0.6,0-1.175,0.241-1.598,0.664L0.666,7.029
		C0.238,7.457,0,8.034,0,8.634v26.892c0.005,1.245,1.086,2.254,2.333,2.254h13.908v19.566c0,1.25,1.008,2.261,2.258,2.261
		c0.024,0,0.049,0,0.073,0h5.414c0.907-0.029,1.705-1.416,2.035-2.261l10.072-24.813"/>
</g>
<g>
</g>
<g>
</g>
<g>
</g>
<g>
</g>
<g>
</g>
<g>
</g>
<g>
</g>
<g>
</g>
<g>
</g>
<g>
</g>
<g>
</g>
<g>
</g>
<g>
</g>
<g>
</g>
<g>
</g>
</svg>
