<?xml version="1.0" encoding="iso-8859-1"?>
<!-- Generator: Adobe Illustrator 18.1.1, SVG Export Plug-In . SVG Version: 6.00 Build 0)  -->
<svg version="1.1" id="Capa_1" xmlns="http://www.w3.org/2000/svg" xmlns:xlink="http://www.w3.org/1999/xlink" x="0px" y="0px"
	 viewBox="0 0 159.232 159.232" style="enable-background:new 0 0 159.232 159.232;" xml:space="preserve">
<g>
	<g>
		<path style="fill:#010002;" d="M55.647,132.101v-22.65H17.901v-5.967h37.746V91.55H17.901v-5.967H55.82
			c0.746-5.859,5.072-10.603,10.734-11.934H17.901v-5.967h69.991c2.154-3.849,6.235-6.468,10.943-6.468h8.568V29.196
			c0-6.731-5.501-12.232-12.226-12.232H12.232C5.507,16.964,0,22.465,0,29.196v100.84c0,6.731,5.507,12.232,12.232,12.232h47.836
			C57.371,139.69,55.647,136.116,55.647,132.101z M17.901,49.782h71.602v5.967H17.901V49.782z"/>
		<path style="fill:#010002;" d="M151.099,79.222h-22.471v-5.406c0-3.64-2.983-6.623-6.617-6.623H98.829
			c-3.646,0-6.617,2.983-6.617,6.623v5.406H69.741c-4.475,0-8.127,3.658-8.127,8.133v44.746c0,4.469,3.652,8.133,8.127,8.133h4.075
			v2.035h8.127v-2.035h56.954v2.035h8.133v-2.035h4.069c4.475,0,8.133-3.664,8.133-8.133V87.355
			C159.238,82.88,155.574,79.222,151.099,79.222z M125.334,79.222h-29.81v-7.238h29.81V79.222z"/>
	</g>
</g>
<g>
</g>
<g>
</g>
<g>
</g>
<g>
</g>
<g>
</g>
<g>
</g>
<g>
</g>
<g>
</g>
<g>
</g>
<g>
</g>
<g>
</g>
<g>
</g>
<g>
</g>
<g>
</g>
<g>
</g>
</svg>
