<?xml version="1.0" encoding="iso-8859-1"?>
<!-- Generator: Adobe Illustrator 16.0.0, SVG Export Plug-In . SVG Version: 6.00 Build 0)  -->
<!DOCTYPE svg PUBLIC "-//W3C//DTD SVG 1.1//EN" "http://www.w3.org/Graphics/SVG/1.1/DTD/svg11.dtd">
<svg version="1.1" id="Capa_1" xmlns="http://www.w3.org/2000/svg" xmlns:xlink="http://www.w3.org/1999/xlink" x="0px" y="0px"
	 width="67.154px" height="67.154px" viewBox="0 0 67.154 67.154" style="enable-background:new 0 0 67.154 67.154;"
	 xml:space="preserve">
<g>
	<path d="M33.577,0C15.033,0,0,15.034,0,33.578c0,18.544,15.033,33.577,33.577,33.577c18.545,0,33.577-15.032,33.577-33.577
		C67.154,15.034,52.122,0,33.577,0z M61.7,32.499c-1.973,6.334-5.965,4.806-5.965,4.806c0.064-1.978,1.118-3.137,2.317-3.821
		c-1.154,0.563-2.181,0.341-2.181,0.341c-0.533-4.709,5.206-5.62,5.206-5.62c-0.484,3.092-1.67,4.51-2.788,5.151
		C59.91,32.523,61.7,32.499,61.7,32.499z M58.124,20.38c0.262,2.737-0.319,4.351-1.091,5.316c1.342-1.088,2.929-1.509,2.929-1.509
		c-0.383,6.62-4.623,6.098-4.623,6.098c-0.358-1.676,0.148-2.936,0.944-3.863c-0.908,0.656-1.798,0.693-1.798,0.693
		C52.793,22.692,58.124,20.38,58.124,20.38z M38.673,36.773c-0.278-0.312-0.431-0.666-0.492-1.079
		c-0.032-0.205-0.144-0.397-0.208-0.603c-0.009-0.038-0.019-0.07-0.027-0.105l0.066-0.109c0.146-0.333,0.251-0.68,0.354-1.028
		c0.111-0.376,0.203-0.701,0.349-0.92l0.196-0.31l0.064-0.658c0.043-0.383,0.077-0.767,0.113-1.164l-0.031-0.89
		c0.483-0.311,1.021-0.514,1.578-0.64c0.36-0.087,0.73-0.142,1.098-0.2c0.098-0.014,0.198-0.004,0.299-0.004
		c0.016,0.028,0.034,0.049,0.05,0.078c-0.077,0.053-0.164,0.105-0.23,0.165c-0.148,0.147-0.139,0.253,0.022,0.388
		c0.336,0.28,0.662,0.559,0.988,0.848c0.282,0.252,0.393,0.584,0.393,0.959c0,0.638,0.004,1.288,0,1.925
		c0,0.133-0.01,0.261,0.147,0.325c0.039,0.009,0.071,0.081,0.071,0.124c-0.032,0.33-0.064,0.659-0.101,0.99
		c-0.005,0.011-0.005,0.028-0.014,0.038c-0.292,0.435-0.333,0.963-0.538,1.422c-0.01,0.021-0.014,0.039-0.027,0.05
		c-0.393,0.459-0.27,1.018-0.278,1.545c0,0.052,0.038,0.142,0.082,0.155c0.155,0.07,0.196,0.209,0.241,0.351
		c0.069,0.23,0.138,0.461,0.237,0.678c0.037,0.08,0.146,0.148,0.235,0.181c1.207,0.465,2.397,0.953,3.552,1.546
		c0.232,0.116,0.431,0.256,0.598,0.434v0.726c-0.794,0-1.583,0-2.375,0v-0.635l-0.333-0.342c-0.345-0.354-0.753-0.65-1.202-0.881
		c-1.692-0.866-3.407-1.573-4.94-2.171c0.009-0.021,0.032-0.027,0.034-0.046c0.048-0.314,0.077-0.634,0.098-0.946
		C38.753,36.912,38.721,36.826,38.673,36.773z M47.045,22.66c0,0,5.461-1.049,6.51,3.359C53.553,26.019,50.105,28.217,47.045,22.66z
		 M54.924,30.471c0,0-3.647,1.693-5.908-4.125C49.011,26.345,54.472,26.035,54.924,30.471z M44.282,19.611
		c0,0,5.094-1.979,6.882,2.096C51.164,21.711,48.222,24.444,44.282,19.611z M40.932,17.365c0,0,4.247-2.779,6.665,0.58
		C47.599,17.944,45.448,20.994,40.932,17.365z M43.972,53.172c0,0-3.764-2.025-0.251-7.655
		C43.721,45.517,47.46,49.969,43.972,53.172z M46.41,43.237c0,0,4.097,4.122,0.888,7.607C47.298,50.845,43.377,49.139,46.41,43.237z
		 M48.386,40.452c0,0,4.651,3.481,1.98,7.396C50.366,47.848,46.241,46.728,48.386,40.452z M49.398,37.214
		c0,0,5.347,2.285,3.682,6.715C53.08,43.929,48.806,43.821,49.398,37.214z M50.013,33.344c0,0,5.584,1.616,4.464,6.224
		C54.479,39.567,50.225,39.976,50.013,33.344z M49.52,29.931c0,0,5.559,0.196,5.596,4.727C55.119,34.663,51.265,36.036,49.52,29.931
		z M55.521,16.618c1.692,6.411-2.5,7.24-2.5,7.24C50.631,19.763,55.521,16.618,55.521,16.618z M52.351,13.516
		c2.728,6.045-1.271,7.551-1.271,7.551C48.048,17.428,52.351,13.516,52.351,13.516z M48.217,11.018
		c4.243,5.102,0.789,7.62,0.789,7.62C45.115,15.93,48.217,11.018,48.217,11.018z M43.655,9.259c5.342,3.932,2.591,7.204,2.591,7.204
		C41.825,14.774,43.655,9.259,43.655,9.259z M44.282,16.045c-4.51,1.579-6.682-3.862-6.682-3.862
		C44.271,11.733,44.282,16.045,44.282,16.045z M29.552,12.183c0,0-2.176,5.44-6.683,3.862C22.87,16.045,22.881,11.733,29.552,12.183
		z M28.506,37.925c0,0.007,0.007,0.012,0.009,0.019l-1.556,0.644c-0.5,0.21-1.002,0.417-1.496,0.646
		c-0.488,0.234-0.965,0.49-1.44,0.748l-0.388,0.207c-0.483,0.256-0.876,0.534-1.201,0.831l-0.375,0.344v0.628
		c-0.789,0-1.578,0-2.372,0v-0.693c0.181-0.169,0.401-0.312,0.633-0.436c0.395-0.213,0.785-0.432,1.188-0.623
		c0.393-0.188,0.801-0.347,1.199-0.518c0.375-0.158,0.756-0.309,1.13-0.468c0.062-0.032,0.133-0.096,0.154-0.164
		c0.082-0.206,0.154-0.427,0.223-0.637c0.049-0.167,0.079-0.326,0.292-0.372c0.051-0.009,0.116-0.103,0.125-0.164
		c0.046-0.311,0.077-0.63,0.098-0.942c0.004-0.065-0.028-0.147-0.074-0.205c-0.278-0.312-0.433-0.666-0.493-1.083
		c-0.033-0.206-0.145-0.393-0.209-0.598c-0.074-0.27-0.145-0.543-0.208-0.826c-0.023-0.098-0.009-0.205-0.026-0.308
		c-0.025-0.147-0.021-0.264,0.158-0.323c0.049-0.018,0.091-0.138,0.091-0.205c0.009-0.439,0.004-0.885,0.004-1.322
		c0.004-0.271,0-0.542,0.023-0.818c0.04-0.519,0.341-0.885,0.724-1.199c0.555-0.458,1.219-0.673,1.903-0.832
		c0.36-0.083,0.729-0.14,1.094-0.196c0.098-0.014,0.199-0.004,0.299-0.004c0.016,0.029,0.032,0.049,0.049,0.078
		c-0.082,0.054-0.165,0.105-0.231,0.166c-0.147,0.147-0.136,0.252,0.026,0.388c0.139,0.121,0.273,0.241,0.416,0.359
		c-0.129,0.271-0.206,0.592-0.138,1.011c0.004,0.12,0.009,0.294,0.051,0.488c0.098,0.439,0.203,0.876,0.33,1.311
		c0.049,0.163,0.116,0.327,0.18,0.483c0.042,0.096,0.091,0.225,0.098,0.27c0.081,0.53,0.261,0.985,0.495,1.411
		c-0.229,0.408-0.297,0.875-0.488,1.298c-0.009,0.021-0.014,0.038-0.028,0.048C28.389,36.84,28.516,37.398,28.506,37.925z
		 M22.87,19.611c-3.942,4.828-6.881,2.096-6.881,2.096C17.777,17.637,22.87,19.611,22.87,19.611z M19.553,17.944
		c2.412-3.359,6.667-0.58,6.667-0.58C21.702,20.994,19.553,17.944,19.553,17.944z M20.104,22.66
		c-3.062,5.557-6.505,3.359-6.505,3.359C14.648,21.611,20.104,22.66,20.104,22.66z M18.14,26.345
		c-2.262,5.817-5.908,4.125-5.908,4.125C12.684,26.035,18.14,26.345,18.14,26.345z M17.632,29.931
		c-1.745,6.101-5.596,4.727-5.596,4.727C12.074,30.127,17.632,29.931,17.632,29.931z M17.14,33.344
		c-0.209,6.632-4.466,6.224-4.466,6.224C11.558,34.965,17.14,33.344,17.14,33.344z M17.757,37.214
		c0.593,6.61-3.682,6.715-3.682,6.715C12.41,39.494,17.757,37.214,17.757,37.214z M18.766,40.452
		c2.145,6.275-1.983,7.396-1.983,7.396C14.115,43.938,18.766,40.452,18.766,40.452z M20.742,43.237
		c3.033,5.901-0.887,7.607-0.887,7.607C16.645,47.359,20.742,43.237,20.742,43.237z M23.43,45.517
		c3.514,5.625-0.25,7.655-0.25,7.655C19.696,49.969,23.43,45.517,23.43,45.517z M23.496,9.259c0,0,1.831,5.516-2.59,7.204
		C20.901,16.462,18.151,13.188,23.496,9.259z M18.932,11.018c0,0,3.102,4.915-0.785,7.62C18.149,18.638,14.692,16.117,18.932,11.018
		z M14.802,13.516c0,0,4.301,3.912,1.273,7.551C16.075,21.069,12.074,19.561,14.802,13.516z M11.632,16.618
		c0,0,4.889,3.146,2.501,7.24C14.139,23.858,9.943,23.029,11.632,16.618z M9.028,20.38c0,0,5.328,2.312,3.638,6.738
		c0,0-0.89-0.038-1.796-0.693c0.795,0.927,1.306,2.191,0.944,3.863c0,0-4.241,0.521-4.625-6.099c0,0,1.587,0.423,2.929,1.509
		C9.348,24.731,8.766,23.115,9.028,20.38z M6.078,28.201c0,0,5.739,0.915,5.202,5.617c0,0-1.023,0.229-2.182-0.339
		c1.205,0.684,2.258,1.843,2.322,3.823c0,0-3.996,1.525-5.968-4.809c0,0,1.794,0.025,3.41,0.852
		C7.741,32.71,6.562,31.291,6.078,28.201z M6.06,41.374c0,0,1.714-0.618,3.54-0.393c-1.251-0.265-2.809-1.231-4.244-3.976
		c0,0,5.73-0.974,6.729,3.656c0,0-0.874,0.525-2.123,0.379c1.32,0.244,2.646,0.972,3.37,2.742
		C13.328,43.783,10.125,46.613,6.06,41.374z M14.973,46.949c0,0-2.866,3.173-7.493-1.581C7.479,45.368,12.693,42.793,14.973,46.949z
		 M9.809,49.381c0,0,4.708-3.408,7.649,0.306C17.465,49.687,15.167,53.29,9.809,49.381z M20.184,52.239c0,0-1.867,3.846-7.638,0.572
		C12.546,52.812,16.832,48.893,20.184,52.239z M16.269,55.622c0,0,3.916-4.298,7.555-1.264
		C23.823,54.358,22.314,58.359,16.269,55.622z M20.329,58.493c0,0,2.771-5.111,7.028-3.045
		C27.357,55.45,26.853,59.695,20.329,58.493z M27.243,54.828c-4.062-2.432-1.304-7.544-1.304-7.544
		C30.515,52.081,27.243,54.828,27.243,54.828z M23.229,42.921v-1.04c0.274-0.256,0.606-0.471,0.954-0.652
		c0.593-0.319,1.182-0.644,1.79-0.934c0.588-0.28,1.197-0.526,1.801-0.773c0.562-0.241,1.135-0.46,1.703-0.709
		c0.098-0.048,0.194-0.144,0.239-0.244c0.123-0.314,0.232-0.637,0.328-0.963c0.078-0.244,0.127-0.492,0.439-0.557
		c0.08-0.018,0.175-0.152,0.189-0.244c0.066-0.467,0.115-0.946,0.145-1.421c0.009-0.101-0.047-0.234-0.114-0.31
		c-0.42-0.467-0.644-1.006-0.74-1.625c-0.049-0.306-0.223-0.593-0.314-0.899c-0.119-0.412-0.219-0.827-0.31-1.241
		c-0.038-0.145-0.014-0.311-0.04-0.462c-0.04-0.227-0.031-0.395,0.241-0.484c0.073-0.026,0.138-0.201,0.14-0.308
		c0.014-0.664,0.005-1.328,0.007-1.995c0.005-0.409,0-0.82,0.033-1.221c0.056-0.778,0.511-1.328,1.086-1.802
		c0.836-0.689,1.838-1.013,2.871-1.253c0.537-0.129,1.093-0.207,1.64-0.292c0.147-0.026,0.299-0.004,0.448-0.004
		c0.023,0.036,0.049,0.074,0.072,0.114c-0.116,0.082-0.243,0.152-0.341,0.25c-0.224,0.225-0.201,0.381,0.04,0.584
		c0.497,0.421,0.993,0.838,1.478,1.275c0.43,0.381,0.594,0.88,0.594,1.444c0,0.965,0.005,1.935,0,2.899
		c0,0.198-0.016,0.395,0.232,0.481c0.051,0.018,0.107,0.127,0.103,0.186c-0.043,0.499-0.096,0.994-0.144,1.486
		c-0.004,0.021-0.009,0.044-0.021,0.056c-0.441,0.647-0.502,1.446-0.822,2.14c-0.014,0.031-0.018,0.056-0.036,0.077
		c-0.595,0.7-0.409,1.53-0.423,2.326c0,0.083,0.056,0.213,0.124,0.24c0.239,0.104,0.299,0.314,0.366,0.531
		c0.104,0.345,0.207,0.691,0.354,1.02c0.052,0.123,0.218,0.226,0.353,0.273c1.809,0.698,3.604,1.431,5.333,2.32
		c0.342,0.176,0.639,0.395,0.898,0.654v1.086C37.027,42.921,30.127,42.921,23.229,42.921z M41.214,47.279
		c0,0,2.763,5.112-1.305,7.549C39.909,54.828,36.635,52.081,41.214,47.279z M39.795,55.45c4.262-2.068,7.028,3.043,7.028,3.043
		C40.3,59.695,39.795,55.45,39.795,55.45z M43.329,54.358c3.643-3.034,7.553,1.264,7.553,1.264
		C44.837,58.359,43.329,54.358,43.329,54.358z M46.967,52.239c3.354-3.352,7.64,0.572,7.64,0.572
		C48.835,56.087,46.967,52.239,46.967,52.239z M49.69,49.687c2.945-3.714,7.648-0.306,7.648-0.306
		C51.985,53.29,49.69,49.687,49.69,49.687z M52.177,46.949c2.286-4.149,7.496-1.581,7.496-1.581
		C55.042,50.122,52.177,46.949,52.177,46.949z M53.824,43.783c0.729-1.771,2.051-2.493,3.371-2.742
		c-1.25,0.144-2.124-0.379-2.124-0.379c0.999-4.63,6.729-3.656,6.729-3.656c-1.435,2.744-2.99,3.711-4.245,3.976
		c1.822-0.226,3.543,0.393,3.543,0.393C57.026,46.613,53.824,43.783,53.824,43.783z"/>
</g>
<g>
</g>
<g>
</g>
<g>
</g>
<g>
</g>
<g>
</g>
<g>
</g>
<g>
</g>
<g>
</g>
<g>
</g>
<g>
</g>
<g>
</g>
<g>
</g>
<g>
</g>
<g>
</g>
<g>
</g>
</svg>
