<?xml version="1.0" encoding="iso-8859-1"?>
<!-- Generator: Adobe Illustrator 18.1.1, SVG Export Plug-In . SVG Version: 6.00 Build 0)  -->
<svg version="1.1" id="Capa_1" xmlns="http://www.w3.org/2000/svg" xmlns:xlink="http://www.w3.org/1999/xlink" x="0px" y="0px"
	 viewBox="0 0 140.108 140.108" style="enable-background:new 0 0 140.108 140.108;" xml:space="preserve">
<g>
	<g>
		<path style="fill:#010002;" d="M86.535,16.492C86.535,7.393,79.159,0,70.054,0c-9.099,0-16.48,7.381-16.48,16.492
			c0,7.667,5.263,14.046,12.363,15.896v58.093c1.331,0.119,2.709,0.167,4.117,0.167c1.408,0,2.787-0.054,4.111-0.167V32.388
			C81.272,30.55,86.535,24.166,86.535,16.492z"/>
		<g>
			<path style="fill:#010002;" d="M127.264,118.824l-16.015-69.365H78.294v25.425c7.274,1.271,12.357,4.165,12.357,7.548
				c0,4.541-9.225,8.24-20.604,8.24c-11.385,0-20.604-3.699-20.604-8.24c0-3.371,5.09-6.277,12.357-7.548V49.459H28.841
				l-16.009,69.365H127.264z"/>
			<rect x="12.366" y="122.941" style="fill:#010002;" width="115.375" height="17.167"/>
		</g>
	</g>
</g>
<g>
</g>
<g>
</g>
<g>
</g>
<g>
</g>
<g>
</g>
<g>
</g>
<g>
</g>
<g>
</g>
<g>
</g>
<g>
</g>
<g>
</g>
<g>
</g>
<g>
</g>
<g>
</g>
<g>
</g>
</svg>
